# xmcd
#
# Track frame offsets: 
#        151
#        12729
#        25170
#        38458
#        50042
#        62812
#        73799
#        84308
#        96264
#        110932
#        124500
#        140634
#        153934
#        168432
#        183672
#        191998
#        198948
#        208426
#        216178
#        226354
#        234272
#        241885
#        251702
#        263991
#        277182
#        286876
#        293725
#        310552
#        321058
#
# Disc length: 4413 seconds
#
# Revision: 0
# Processed by: cddbd v1.5.2PL0 Copyright (c) Steve Scherf et al.
# Submitted via: ExactAudioCopy v0.99pb4
#
DISCID=bc113b1d
DTITLE=Fisk Jubilee Singers - In Chronological Order, Volume 3 (1924-1
DTITLE=940): Every Time I Feel The Spirit
DYEAR=1900
DGENRE=Gospel
TTITLE0=You Better Get Somebody On Your Bond
TTITLE1=Hope I'll Join The Band
TTITLE2=Keep A Inchin' Along
TTITLE3=Shout All Over God's Heaven
TTITLE4=Steal Away To Jesus
TTITLE5=Every Time I Feel The Spirit
TTITLE6=Ezekiel Saw De Wheel
TTITLE7=Little David
TTITLE8=Dry Bones: The Old Ark's A'Movering
TTITLE9=I Wanna Die Easy
TTITLE10=Nobody Knows The Trouble I See
TTITLE11=Show Me The Way
TTITLE12=There Is A Light Shining
TTITLE13=Everybody Ought To Pray Sometime - Every Time I Feel The Spiri
TTITLE13=t
TTITLE14=Swing Low, Sweet Chariot
TTITLE15=On My Journey Now
TTITLE16=Blow, Gabriel, Blow
TTITLE17=My Lord's Writing All The Time
TTITLE18=We Are Climbing Jacob's Ladder
TTITLE19=Lord I Done Done
TTITLE20=Oh Mary Don't You Weep
TTITLE21=In That Morning
TTITLE22=I Been 'Buked
TTITLE23=Shine On Me
TTITLE24=Sweet Turtledove
TTITLE25=On My Journey Now
TTITLE26=Hear The Lambs A Cryin'
TTITLE27=Deep River
TTITLE28=Golden Slippers
EXTD=
EXTT0=
EXTT1=
EXTT2=
EXTT3=
EXTT4=
EXTT5=
EXTT6=
EXTT7=
EXTT8=
EXTT9=
EXTT10=
EXTT11=
EXTT12=
EXTT13=
EXTT14=
EXTT15=
EXTT16=
EXTT17=
EXTT18=
EXTT19=
EXTT20=
EXTT21=
EXTT22=
EXTT23=
EXTT24=
EXTT25=
EXTT26=
EXTT27=
EXTT28=
PLAYORDER=
